<svg xmlns="http://www.w3.org/2000/svg" xmlns:xlink="http://www.w3.org/1999/xlink" width="240" zoomAndPan="magnify" viewBox="0 0 180 142.499996" height="190" preserveAspectRatio="xMidYMid meet" version="1.0"><defs><g/><clipPath id="36f221e23e"><path d="M 58 7.1875 L 114 7.1875 L 114 105 L 58 105 Z M 58 7.1875 " clip-rule="nonzero"/></clipPath><clipPath id="c25389c144"><path d="M 0.316406 35 L 69 35 L 69 109.34375 L 0.316406 109.34375 Z M 0.316406 35 " clip-rule="nonzero"/></clipPath><clipPath id="90ba3fa477"><path d="M 100.367188 19.042969 L 179.46875 19.042969 L 179.46875 57.792969 L 100.367188 57.792969 Z M 100.367188 19.042969 " clip-rule="nonzero"/></clipPath><clipPath id="c7ed8fbf7e"><path d="M 71.1875 54.449219 L 177.257812 54.449219 L 177.257812 109.335938 L 71.1875 109.335938 Z M 71.1875 54.449219 " clip-rule="nonzero"/></clipPath></defs><g clip-path="url(#36f221e23e)"><path fill="#e71f69" d="M 66.441406 104.644531 C 66.441406 104.644531 66.570312 75.28125 113.242188 36.597656 C 113.242188 36.597656 64.789062 70.191406 69.417969 7.1875 C 69.417969 7.1875 47.675781 50.953125 66.441406 104.644531 " fill-opacity="1" fill-rule="nonzero"/></g><path fill="#e71f69" d="M 90.222656 23.183594 C 95.246094 26.382812 96.5 33.390625 93.03125 38.835938 C 89.558594 44.28125 82.675781 46.101562 77.65625 42.902344 C 72.632812 39.703125 71.378906 32.691406 74.847656 27.246094 C 78.320312 21.800781 85.203125 19.980469 90.222656 23.183594 " fill-opacity="1" fill-rule="nonzero"/><g clip-path="url(#c25389c144)"><path fill="#f8b31a" d="M 68.148438 109.039062 C 68.148438 109.039062 47.277344 91.777344 46.976562 35.871094 C 46.976562 35.871094 42.609375 90.070312 0.375 49.9375 C 0.375 49.9375 18.882812 91.035156 68.148438 109.039062 " fill-opacity="1" fill-rule="nonzero"/></g><path fill="#f8b31a" d="M 23.949219 44.445312 C 29.167969 42.734375 34.902344 45.9375 36.753906 51.597656 C 38.609375 57.257812 35.882812 63.230469 30.667969 64.941406 C 25.449219 66.652344 19.714844 63.449219 17.859375 57.789062 C 16.003906 52.132812 18.730469 46.15625 23.949219 44.445312 " fill-opacity="1" fill-rule="nonzero"/><path fill="#00a89f" d="M 167.460938 38.507812 L 135.710938 86.71875 C 100.976562 79 78.84375 89.585938 75.410156 91.746094 C 75.410156 91.746094 106.234375 38.230469 167.460938 38.507812 " fill-opacity="1" fill-rule="nonzero"/><g clip-path="url(#90ba3fa477)"><path fill="#f8b31a" d="M 179.46875 19.128906 L 171.945312 30.546875 C 139.714844 29.988281 115.246094 45.035156 100.378906 57.777344 C 114 42.230469 140.398438 19.734375 179.46875 19.128906 " fill-opacity="1" fill-rule="nonzero"/></g><path fill="#e71f69" d="M 172.785156 48.375 L 140.375 96.425781 C 101.539062 87.140625 77.191406 98.570312 73.292969 100.601562 L 74.476562 95.648438 C 81.613281 92.230469 105.152344 84.261719 139.632812 92.503906 L 169.691406 47.695312 C 170.71875 47.902344 171.75 48.128906 172.785156 48.375 " fill-opacity="1" fill-rule="nonzero"/><g clip-path="url(#c7ed8fbf7e)"><path fill="#00609e" d="M 177.25 55.207031 L 143.804688 104.683594 C 101.085938 94.472656 74.699219 107.464844 71.207031 109.335938 L 72.382812 104.40625 C 79.855469 100.765625 105.289062 91.886719 142.898438 100.878906 L 174.085938 54.511719 C 175.132812 54.722656 176.1875 54.957031 177.25 55.207031 " fill-opacity="1" fill-rule="nonzero"/></g><g fill="#e71f69" fill-opacity="1"><g transform="translate(9.855141, 133.012174)"><g><path d="M 3.328125 -16.859375 L 3.96875 -16.859375 C 4.570312 -16.859375 5.050781 -16.722656 5.40625 -16.453125 C 5.757812 -16.191406 6 -15.773438 6.125 -15.203125 C 6.195312 -14.941406 6.238281 -14.640625 6.25 -14.296875 C 6.257812 -13.953125 6.273438 -13.707031 6.296875 -13.5625 C 6.398438 -13.101562 6.453125 -12.519531 6.453125 -11.8125 C 6.453125 -10.800781 6.476562 -10.160156 6.53125 -9.890625 C 6.550781 -9.765625 6.648438 -9.65625 6.828125 -9.5625 C 6.847656 -9.539062 7.023438 -9.53125 7.359375 -9.53125 C 7.859375 -9.53125 8.40625 -9.539062 9 -9.5625 C 9.601562 -9.59375 10.15625 -9.679688 10.65625 -9.828125 C 10.90625 -9.941406 11.117188 -10.160156 11.296875 -10.484375 C 11.367188 -10.628906 11.414062 -10.789062 11.4375 -10.96875 C 11.457031 -11.15625 11.46875 -11.359375 11.46875 -11.578125 C 11.46875 -12.066406 11.367188 -12.535156 11.171875 -12.984375 C 10.984375 -13.441406 10.765625 -13.734375 10.515625 -13.859375 L 10.328125 -13.96875 L 8.984375 -14 C 8.515625 -14.019531 8.15625 -14.03125 7.90625 -14.03125 C 7.664062 -14.03125 7.523438 -14.035156 7.484375 -14.046875 C 7.109375 -14.179688 6.863281 -14.507812 6.75 -15.03125 C 6.695312 -15.363281 6.710938 -15.648438 6.796875 -15.890625 C 6.878906 -16.140625 7.035156 -16.316406 7.265625 -16.421875 C 7.398438 -16.472656 7.578125 -16.507812 7.796875 -16.53125 C 8.023438 -16.5625 8.296875 -16.597656 8.609375 -16.640625 C 8.910156 -16.660156 9.171875 -16.671875 9.390625 -16.671875 C 9.609375 -16.671875 9.8125 -16.675781 10 -16.6875 C 10.363281 -16.707031 10.84375 -16.738281 11.4375 -16.78125 C 12.1875 -16.8125 12.738281 -16.765625 13.09375 -16.640625 C 13.457031 -16.515625 13.769531 -16.351562 14.03125 -16.15625 C 14.226562 -16.007812 14.394531 -15.796875 14.53125 -15.515625 C 14.664062 -15.234375 14.769531 -14.925781 14.84375 -14.59375 C 14.914062 -14.269531 14.960938 -13.941406 14.984375 -13.609375 C 15.015625 -13.285156 15.03125 -13.003906 15.03125 -12.765625 C 15.050781 -12.128906 15.023438 -11.617188 14.953125 -11.234375 C 14.878906 -10.847656 14.722656 -10.4375 14.484375 -10 L 14.25 -9.34375 C 14.351562 -9.25 14.453125 -9.164062 14.546875 -9.09375 C 14.648438 -9.019531 14.757812 -8.9375 14.875 -8.84375 C 15 -8.78125 15.097656 -8.691406 15.171875 -8.578125 C 15.242188 -8.472656 15.296875 -8.375 15.328125 -8.28125 C 15.390625 -8.132812 15.453125 -8 15.515625 -7.875 C 15.578125 -7.75 15.625 -7.628906 15.65625 -7.515625 C 15.75 -7.316406 15.8125 -7.117188 15.84375 -6.921875 C 15.882812 -6.734375 15.914062 -6.515625 15.9375 -6.265625 C 15.96875 -5.703125 15.957031 -5.179688 15.90625 -4.703125 C 15.863281 -4.234375 15.769531 -3.789062 15.625 -3.375 C 15.488281 -2.957031 15.289062 -2.5625 15.03125 -2.1875 C 14.78125 -1.820312 14.460938 -1.457031 14.078125 -1.09375 C 13.828125 -0.851562 13.523438 -0.628906 13.171875 -0.421875 C 12.828125 -0.210938 12.484375 -0.109375 12.140625 -0.109375 C 11.890625 -0.109375 11.566406 -0.125 11.171875 -0.15625 C 10.785156 -0.195312 10.3125 -0.195312 9.75 -0.15625 C 9.332031 -0.125 8.9375 -0.0976562 8.5625 -0.078125 C 8.1875 -0.0546875 7.835938 -0.0390625 7.515625 -0.03125 L 6.671875 0 L 6.203125 0.15625 C 5.898438 0.269531 5.632812 0.351562 5.40625 0.40625 C 5.175781 0.457031 4.960938 0.484375 4.765625 0.484375 C 4.441406 0.484375 4.0625 0.421875 3.625 0.296875 C 3.351562 0.242188 3.097656 0.160156 2.859375 0.046875 C 2.617188 -0.0546875 2.4375 -0.195312 2.3125 -0.375 C 2.21875 -0.46875 2.148438 -0.585938 2.109375 -0.734375 C 2.066406 -0.878906 2.015625 -1.035156 1.953125 -1.203125 C 1.921875 -1.328125 1.882812 -1.640625 1.84375 -2.140625 C 1.8125 -2.640625 1.757812 -3.320312 1.6875 -4.1875 C 1.65625 -4.695312 1.625 -5.53125 1.59375 -6.6875 C 1.5625 -7.851562 1.566406 -9.375 1.609375 -11.25 L 1.609375 -15.84375 L 1.65625 -16.015625 C 1.84375 -16.484375 2.398438 -16.765625 3.328125 -16.859375 Z M 10.453125 -6.921875 C 10.421875 -6.929688 10.289062 -6.9375 10.0625 -6.9375 C 9.832031 -6.9375 9.535156 -6.929688 9.171875 -6.921875 C 8.703125 -6.921875 8.304688 -6.914062 7.984375 -6.90625 C 7.671875 -6.894531 7.453125 -6.878906 7.328125 -6.859375 C 7.066406 -6.835938 6.910156 -6.722656 6.859375 -6.515625 C 6.859375 -6.472656 6.851562 -6.332031 6.84375 -6.09375 C 6.832031 -5.863281 6.828125 -5.507812 6.828125 -5.03125 C 6.828125 -4.582031 6.828125 -4.222656 6.828125 -3.953125 C 6.828125 -3.691406 6.835938 -3.519531 6.859375 -3.4375 C 6.878906 -3.195312 6.90625 -3.050781 6.9375 -3 C 7.03125 -2.945312 7.550781 -2.972656 8.5 -3.078125 C 8.75 -3.109375 8.992188 -3.128906 9.234375 -3.140625 C 9.484375 -3.148438 9.738281 -3.164062 10 -3.1875 L 10.84375 -3.265625 L 10.859375 -3.34375 C 10.898438 -3.476562 10.945312 -3.632812 11 -3.8125 C 11.050781 -3.988281 11.097656 -4.195312 11.140625 -4.4375 C 11.191406 -4.695312 11.222656 -5.003906 11.234375 -5.359375 C 11.242188 -5.722656 11.226562 -6 11.1875 -6.1875 C 11.039062 -6.601562 10.796875 -6.847656 10.453125 -6.921875 Z M 10.453125 -6.921875 "/></g></g></g><g fill="#e71f69" fill-opacity="1"><g transform="translate(26.795257, 133.012174)"><g><path d="M 8.53125 -16.75 C 8.632812 -16.78125 8.921875 -16.78125 9.390625 -16.75 C 9.609375 -16.726562 9.796875 -16.71875 9.953125 -16.71875 C 10.109375 -16.71875 10.222656 -16.707031 10.296875 -16.6875 C 10.910156 -16.613281 11.441406 -16.503906 11.890625 -16.359375 C 12.347656 -16.222656 12.757812 -16.03125 13.125 -15.78125 C 13.488281 -15.539062 13.820312 -15.234375 14.125 -14.859375 C 14.425781 -14.484375 14.71875 -14.035156 15 -13.515625 C 15.144531 -13.203125 15.257812 -12.90625 15.34375 -12.625 C 15.425781 -12.34375 15.503906 -12.109375 15.578125 -11.921875 C 15.753906 -11.347656 15.882812 -10.796875 15.96875 -10.265625 C 16.050781 -9.742188 16.09375 -9.179688 16.09375 -8.578125 C 16.09375 -8.285156 16.085938 -8.046875 16.078125 -7.859375 C 16.066406 -7.671875 16.054688 -7.53125 16.046875 -7.4375 C 16.023438 -7.363281 16.003906 -7.265625 15.984375 -7.140625 C 15.960938 -7.023438 15.9375 -6.867188 15.90625 -6.671875 C 15.8125 -5.929688 15.648438 -5.21875 15.421875 -4.53125 C 15.203125 -3.851562 14.898438 -3.234375 14.515625 -2.671875 C 14.128906 -2.109375 13.65625 -1.617188 13.09375 -1.203125 C 12.53125 -0.785156 11.859375 -0.46875 11.078125 -0.25 C 10.585938 -0.101562 10.078125 -0.00390625 9.546875 0.046875 C 9.015625 0.109375 8.484375 0.140625 7.953125 0.140625 C 6.828125 0.140625 5.898438 -0.0390625 5.171875 -0.40625 C 4.066406 -0.96875 3.21875 -1.71875 2.625 -2.65625 C 2.039062 -3.601562 1.640625 -4.675781 1.421875 -5.875 C 1.203125 -7.007812 1.101562 -8.085938 1.125 -9.109375 C 1.15625 -10.140625 1.289062 -11.113281 1.53125 -12.03125 C 1.78125 -12.90625 2.101562 -13.632812 2.5 -14.21875 C 2.90625 -14.800781 3.382812 -15.269531 3.9375 -15.625 C 4.488281 -15.976562 5.113281 -16.238281 5.8125 -16.40625 C 6.507812 -16.582031 7.273438 -16.6875 8.109375 -16.71875 C 8.171875 -16.71875 8.25 -16.722656 8.34375 -16.734375 C 8.445312 -16.742188 8.507812 -16.75 8.53125 -16.75 Z M 9.3125 -13.453125 C 9.039062 -13.503906 8.84375 -13.503906 8.71875 -13.453125 C 8.007812 -13.359375 7.484375 -13.125 7.140625 -12.75 C 6.921875 -12.53125 6.738281 -12.210938 6.59375 -11.796875 C 6.445312 -11.378906 6.335938 -10.878906 6.265625 -10.296875 C 6.242188 -10.171875 6.234375 -9.976562 6.234375 -9.71875 C 6.234375 -9.46875 6.234375 -9.132812 6.234375 -8.71875 C 6.234375 -7.914062 6.242188 -7.226562 6.265625 -6.65625 C 6.296875 -6.082031 6.367188 -5.613281 6.484375 -5.25 C 6.679688 -4.613281 6.921875 -4.140625 7.203125 -3.828125 C 7.484375 -3.523438 7.867188 -3.347656 8.359375 -3.296875 C 8.867188 -3.253906 9.332031 -3.335938 9.75 -3.546875 C 10.0625 -3.691406 10.3125 -3.914062 10.5 -4.21875 C 10.6875 -4.53125 10.835938 -4.941406 10.953125 -5.453125 C 11.273438 -6.867188 11.4375 -8.253906 11.4375 -9.609375 C 11.4375 -9.992188 11.410156 -10.398438 11.359375 -10.828125 C 11.316406 -11.253906 11.21875 -11.648438 11.0625 -12.015625 C 10.914062 -12.390625 10.703125 -12.707031 10.421875 -12.96875 C 10.148438 -13.238281 9.78125 -13.398438 9.3125 -13.453125 Z M 9.3125 -13.453125 "/></g></g></g><g fill="#e71f69" fill-opacity="1"><g transform="translate(43.980488, 133.012174)"><g><path d="M 8.53125 -16.75 C 8.632812 -16.78125 8.921875 -16.78125 9.390625 -16.75 C 9.609375 -16.726562 9.796875 -16.71875 9.953125 -16.71875 C 10.109375 -16.71875 10.222656 -16.707031 10.296875 -16.6875 C 10.910156 -16.613281 11.441406 -16.503906 11.890625 -16.359375 C 12.347656 -16.222656 12.757812 -16.03125 13.125 -15.78125 C 13.488281 -15.539062 13.820312 -15.234375 14.125 -14.859375 C 14.425781 -14.484375 14.71875 -14.035156 15 -13.515625 C 15.144531 -13.203125 15.257812 -12.90625 15.34375 -12.625 C 15.425781 -12.34375 15.503906 -12.109375 15.578125 -11.921875 C 15.753906 -11.347656 15.882812 -10.796875 15.96875 -10.265625 C 16.050781 -9.742188 16.09375 -9.179688 16.09375 -8.578125 C 16.09375 -8.285156 16.085938 -8.046875 16.078125 -7.859375 C 16.066406 -7.671875 16.054688 -7.53125 16.046875 -7.4375 C 16.023438 -7.363281 16.003906 -7.265625 15.984375 -7.140625 C 15.960938 -7.023438 15.9375 -6.867188 15.90625 -6.671875 C 15.8125 -5.929688 15.648438 -5.21875 15.421875 -4.53125 C 15.203125 -3.851562 14.898438 -3.234375 14.515625 -2.671875 C 14.128906 -2.109375 13.65625 -1.617188 13.09375 -1.203125 C 12.53125 -0.785156 11.859375 -0.46875 11.078125 -0.25 C 10.585938 -0.101562 10.078125 -0.00390625 9.546875 0.046875 C 9.015625 0.109375 8.484375 0.140625 7.953125 0.140625 C 6.828125 0.140625 5.898438 -0.0390625 5.171875 -0.40625 C 4.066406 -0.96875 3.21875 -1.71875 2.625 -2.65625 C 2.039062 -3.601562 1.640625 -4.675781 1.421875 -5.875 C 1.203125 -7.007812 1.101562 -8.085938 1.125 -9.109375 C 1.15625 -10.140625 1.289062 -11.113281 1.53125 -12.03125 C 1.78125 -12.90625 2.101562 -13.632812 2.5 -14.21875 C 2.90625 -14.800781 3.382812 -15.269531 3.9375 -15.625 C 4.488281 -15.976562 5.113281 -16.238281 5.8125 -16.40625 C 6.507812 -16.582031 7.273438 -16.6875 8.109375 -16.71875 C 8.171875 -16.71875 8.25 -16.722656 8.34375 -16.734375 C 8.445312 -16.742188 8.507812 -16.75 8.53125 -16.75 Z M 9.3125 -13.453125 C 9.039062 -13.503906 8.84375 -13.503906 8.71875 -13.453125 C 8.007812 -13.359375 7.484375 -13.125 7.140625 -12.75 C 6.921875 -12.53125 6.738281 -12.210938 6.59375 -11.796875 C 6.445312 -11.378906 6.335938 -10.878906 6.265625 -10.296875 C 6.242188 -10.171875 6.234375 -9.976562 6.234375 -9.71875 C 6.234375 -9.46875 6.234375 -9.132812 6.234375 -8.71875 C 6.234375 -7.914062 6.242188 -7.226562 6.265625 -6.65625 C 6.296875 -6.082031 6.367188 -5.613281 6.484375 -5.25 C 6.679688 -4.613281 6.921875 -4.140625 7.203125 -3.828125 C 7.484375 -3.523438 7.867188 -3.347656 8.359375 -3.296875 C 8.867188 -3.253906 9.332031 -3.335938 9.75 -3.546875 C 10.0625 -3.691406 10.3125 -3.914062 10.5 -4.21875 C 10.6875 -4.53125 10.835938 -4.941406 10.953125 -5.453125 C 11.273438 -6.867188 11.4375 -8.253906 11.4375 -9.609375 C 11.4375 -9.992188 11.410156 -10.398438 11.359375 -10.828125 C 11.316406 -11.253906 11.21875 -11.648438 11.0625 -12.015625 C 10.914062 -12.390625 10.703125 -12.707031 10.421875 -12.96875 C 10.148438 -13.238281 9.78125 -13.398438 9.3125 -13.453125 Z M 9.3125 -13.453125 "/></g></g></g><g fill="#e71f69" fill-opacity="1"><g transform="translate(61.165719, 133.012174)"><g><path d="M 4.734375 -16.71875 C 5.117188 -16.71875 5.425781 -16.679688 5.65625 -16.609375 C 5.894531 -16.535156 6.085938 -16.414062 6.234375 -16.25 C 6.378906 -16.09375 6.488281 -15.890625 6.5625 -15.640625 C 6.632812 -15.398438 6.695312 -15.109375 6.75 -14.765625 C 6.769531 -14.648438 6.78125 -14.40625 6.78125 -14.03125 C 6.78125 -13.664062 6.796875 -13.164062 6.828125 -12.53125 L 6.828125 -10.625 L 7.40625 -10.046875 C 7.625 -9.847656 7.804688 -9.679688 7.953125 -9.546875 C 8.097656 -9.410156 8.222656 -9.296875 8.328125 -9.203125 C 8.421875 -9.109375 8.519531 -9.007812 8.625 -8.90625 C 8.738281 -8.8125 8.847656 -8.710938 8.953125 -8.609375 C 9.097656 -8.460938 9.28125 -8.296875 9.5 -8.109375 C 9.71875 -7.929688 9.984375 -7.742188 10.296875 -7.546875 C 10.660156 -7.328125 11.054688 -7.035156 11.484375 -6.671875 C 11.921875 -6.304688 12.347656 -5.914062 12.765625 -5.5 C 13.191406 -5.082031 13.582031 -4.660156 13.9375 -4.234375 C 14.300781 -3.804688 14.59375 -3.410156 14.8125 -3.046875 L 14.984375 -2.78125 L 14.890625 -2.53125 C 14.816406 -2.28125 14.691406 -2 14.515625 -1.6875 C 14.347656 -1.375 14.144531 -1.085938 13.90625 -0.828125 C 13.675781 -0.566406 13.421875 -0.34375 13.140625 -0.15625 C 12.859375 0.0195312 12.570312 0.109375 12.28125 0.109375 C 12.113281 0.109375 11.941406 0.0625 11.765625 -0.03125 C 11.617188 -0.101562 11.398438 -0.257812 11.109375 -0.5 C 10.816406 -0.75 10.445312 -1.097656 10 -1.546875 C 9.519531 -2.023438 9.019531 -2.507812 8.5 -3 C 7.988281 -3.488281 7.460938 -3.992188 6.921875 -4.515625 L 6.671875 -4.765625 C 6.648438 -4.742188 6.628906 -4.671875 6.609375 -4.546875 C 6.597656 -4.421875 6.582031 -4.273438 6.5625 -4.109375 C 6.539062 -3.953125 6.523438 -3.800781 6.515625 -3.65625 C 6.515625 -3.507812 6.515625 -3.414062 6.515625 -3.375 C 6.515625 -3.28125 6.507812 -3.175781 6.5 -3.0625 C 6.488281 -2.945312 6.472656 -2.804688 6.453125 -2.640625 C 6.421875 -2.148438 6.394531 -1.765625 6.375 -1.484375 C 6.351562 -1.203125 6.332031 -1.015625 6.3125 -0.921875 C 6.300781 -0.847656 6.285156 -0.773438 6.265625 -0.703125 C 6.242188 -0.628906 6.207031 -0.554688 6.15625 -0.484375 C 5.957031 -0.210938 5.703125 -0.0390625 5.390625 0.03125 C 5.078125 0.113281 4.769531 0.15625 4.46875 0.15625 C 4.300781 0.15625 4.132812 0.144531 3.96875 0.125 C 3.8125 0.113281 3.671875 0.0859375 3.546875 0.046875 C 2.941406 -0.0351562 2.484375 -0.210938 2.171875 -0.484375 C 1.867188 -0.765625 1.671875 -1.210938 1.578125 -1.828125 L 1.578125 -3.84375 C 1.578125 -4.40625 1.585938 -4.867188 1.609375 -5.234375 C 1.628906 -5.597656 1.644531 -5.867188 1.65625 -6.046875 C 1.675781 -6.222656 1.6875 -6.488281 1.6875 -6.84375 C 1.6875 -7.195312 1.695312 -7.640625 1.71875 -8.171875 C 1.738281 -8.441406 1.75 -8.679688 1.75 -8.890625 C 1.75 -9.097656 1.75 -9.273438 1.75 -9.421875 C 1.757812 -9.585938 1.765625 -9.722656 1.765625 -9.828125 C 1.765625 -9.898438 1.765625 -9.992188 1.765625 -10.109375 C 1.785156 -10.191406 1.796875 -10.289062 1.796875 -10.40625 C 1.796875 -10.53125 1.804688 -10.675781 1.828125 -10.84375 C 1.898438 -13.75 1.972656 -15.34375 2.046875 -15.625 C 2.097656 -15.90625 2.207031 -16.082031 2.375 -16.15625 C 2.675781 -16.351562 3.050781 -16.492188 3.5 -16.578125 C 3.957031 -16.671875 4.367188 -16.71875 4.734375 -16.71875 Z M 12.609375 -16.046875 C 12.847656 -16.128906 13.113281 -16.117188 13.40625 -16.015625 C 13.632812 -15.921875 13.898438 -15.769531 14.203125 -15.5625 C 14.503906 -15.351562 14.707031 -15.175781 14.8125 -15.03125 C 15.195312 -14.5625 15.253906 -14.054688 14.984375 -13.515625 C 14.796875 -13.109375 14.488281 -12.6875 14.0625 -12.25 C 13.632812 -11.820312 13.160156 -11.410156 12.640625 -11.015625 C 12.128906 -10.628906 11.601562 -10.28125 11.0625 -9.96875 C 10.53125 -9.65625 10.046875 -9.4375 9.609375 -9.3125 L 9.375 -9.234375 L 9.171875 -9.265625 C 8.898438 -9.347656 8.59375 -9.554688 8.25 -9.890625 C 7.65625 -10.523438 7.429688 -11.085938 7.578125 -11.578125 C 7.703125 -11.941406 8.082031 -12.394531 8.71875 -12.9375 C 11.019531 -14.863281 12.316406 -15.898438 12.609375 -16.046875 Z M 12.609375 -16.046875 "/></g></g></g><g fill="#e71f69" fill-opacity="1"><g transform="translate(77.152613, 133.012174)"><g><path d="M 15.171875 -16.90625 C 15.242188 -16.925781 15.46875 -16.925781 15.84375 -16.90625 C 16.476562 -16.90625 16.929688 -16.847656 17.203125 -16.734375 C 17.484375 -16.617188 17.6875 -16.425781 17.8125 -16.15625 C 17.9375 -15.9375 18.035156 -15.582031 18.109375 -15.09375 C 18.179688 -14.601562 18.234375 -14.070312 18.265625 -13.5 C 18.304688 -12.9375 18.332031 -12.390625 18.34375 -11.859375 C 18.351562 -11.328125 18.359375 -10.914062 18.359375 -10.625 L 18.359375 -8.421875 C 18.335938 -8.160156 18.320312 -7.914062 18.3125 -7.6875 C 18.300781 -7.46875 18.296875 -7.253906 18.296875 -7.046875 C 18.242188 -6.484375 18.203125 -5.925781 18.171875 -5.375 C 18.148438 -4.820312 18.128906 -4.265625 18.109375 -3.703125 C 18.085938 -3.242188 18.078125 -2.851562 18.078125 -2.53125 C 18.078125 -2.207031 18.0625 -1.945312 18.03125 -1.75 L 18 -1.203125 L 17.8125 -0.984375 C 17.695312 -0.691406 17.515625 -0.457031 17.265625 -0.28125 C 17.023438 -0.113281 16.753906 -0.0078125 16.453125 0.03125 C 16.234375 0.0820312 15.957031 0.109375 15.625 0.109375 C 14.957031 0.109375 14.367188 0.0195312 13.859375 -0.15625 C 13.609375 -0.289062 13.390625 -0.476562 13.203125 -0.71875 C 13.023438 -0.96875 12.9375 -1.242188 12.9375 -1.546875 C 12.914062 -1.585938 12.90625 -1.859375 12.90625 -2.359375 C 12.90625 -2.859375 12.894531 -3.578125 12.875 -4.515625 C 12.875 -5.316406 12.875 -5.941406 12.875 -6.390625 C 12.875 -6.847656 12.859375 -7.140625 12.828125 -7.265625 C 12.785156 -7.523438 12.738281 -7.679688 12.6875 -7.734375 L 12.578125 -7.8125 L 12.0625 -7.8125 C 11.882812 -7.8125 11.722656 -7.804688 11.578125 -7.796875 C 11.429688 -7.785156 11.300781 -7.773438 11.1875 -7.765625 C 10.644531 -7.710938 10.03125 -7.6875 9.34375 -7.6875 C 8.375 -7.6875 7.789062 -7.648438 7.59375 -7.578125 C 7.539062 -7.578125 7.5 -7.503906 7.46875 -7.359375 C 7.375 -6.878906 7.316406 -6.160156 7.296875 -5.203125 C 7.273438 -4.765625 7.265625 -4.40625 7.265625 -4.125 C 7.265625 -3.84375 7.257812 -3.628906 7.25 -3.484375 C 7.082031 -1.898438 6.960938 -1.003906 6.890625 -0.796875 C 6.835938 -0.648438 6.707031 -0.515625 6.5 -0.390625 C 6.300781 -0.273438 6.078125 -0.175781 5.828125 -0.09375 C 5.585938 -0.0078125 5.34375 0.0507812 5.09375 0.09375 C 4.851562 0.132812 4.671875 0.15625 4.546875 0.15625 C 3.929688 0.15625 3.367188 0.0195312 2.859375 -0.25 C 2.347656 -0.519531 2.019531 -0.972656 1.875 -1.609375 C 1.800781 -1.929688 1.75 -2.519531 1.71875 -3.375 C 1.695312 -3.707031 1.6875 -3.976562 1.6875 -4.1875 C 1.6875 -4.394531 1.675781 -4.550781 1.65625 -4.65625 C 1.644531 -4.769531 1.632812 -5.035156 1.625 -5.453125 C 1.613281 -5.878906 1.609375 -6.484375 1.609375 -7.265625 C 1.566406 -8.335938 1.554688 -9.242188 1.578125 -9.984375 C 1.597656 -10.734375 1.625 -11.328125 1.65625 -11.765625 C 1.65625 -11.960938 1.664062 -12.191406 1.6875 -12.453125 C 1.707031 -12.722656 1.734375 -12.992188 1.765625 -13.265625 C 1.804688 -13.535156 1.84375 -13.800781 1.875 -14.0625 C 1.914062 -14.332031 1.960938 -14.546875 2.015625 -14.703125 C 2.117188 -15.316406 2.25 -15.734375 2.40625 -15.953125 C 2.5625 -16.171875 2.8125 -16.347656 3.15625 -16.484375 C 3.6875 -16.640625 4.515625 -16.71875 5.640625 -16.71875 C 6.003906 -16.71875 6.328125 -16.6875 6.609375 -16.625 C 6.898438 -16.5625 7.113281 -16.332031 7.25 -15.9375 C 7.28125 -15.863281 7.296875 -15.625 7.296875 -15.21875 C 7.296875 -14.820312 7.296875 -14.253906 7.296875 -13.515625 C 7.296875 -12.734375 7.296875 -12.125 7.296875 -11.6875 C 7.296875 -11.25 7.304688 -10.984375 7.328125 -10.890625 L 7.375 -10.625 L 7.59375 -10.625 C 7.6875 -10.601562 7.941406 -10.59375 8.359375 -10.59375 C 8.773438 -10.59375 9.375 -10.59375 10.15625 -10.59375 L 11.875 -10.59375 C 12.019531 -10.59375 12.164062 -10.632812 12.3125 -10.71875 C 12.457031 -10.8125 12.59375 -10.90625 12.71875 -11 C 12.8125 -11.050781 12.859375 -11.128906 12.859375 -11.234375 C 12.867188 -11.347656 12.875 -11.476562 12.875 -11.625 C 12.875 -11.738281 12.875 -11.960938 12.875 -12.296875 C 12.875 -12.628906 12.882812 -13.078125 12.90625 -13.640625 C 12.90625 -14.984375 12.925781 -15.75 12.96875 -15.9375 C 13.070312 -16.257812 13.21875 -16.503906 13.40625 -16.671875 C 13.601562 -16.773438 13.882812 -16.835938 14.25 -16.859375 C 14.625 -16.890625 14.929688 -16.90625 15.171875 -16.90625 Z M 15.171875 -16.90625 "/></g></g></g><g fill="#e71f69" fill-opacity="1"><g transform="translate(97.061339, 133.012174)"><g><path d="M 8.75 -16.90625 C 9.21875 -16.976562 9.929688 -16.78125 10.890625 -16.3125 C 11.765625 -15.894531 12.265625 -15.46875 12.390625 -15.03125 C 12.441406 -14.882812 12.460938 -14.628906 12.453125 -14.265625 C 12.410156 -14.066406 12.390625 -13.894531 12.390625 -13.75 C 12.390625 -13.601562 12.390625 -13.488281 12.390625 -13.40625 L 12.390625 -13.09375 L 12.578125 -12.828125 C 12.796875 -12.535156 13.015625 -12.21875 13.234375 -11.875 C 13.453125 -11.53125 13.679688 -11.148438 13.921875 -10.734375 C 14.335938 -10.003906 14.71875 -9.238281 15.0625 -8.4375 C 15.15625 -8.289062 15.238281 -8.128906 15.3125 -7.953125 C 15.394531 -7.785156 15.484375 -7.613281 15.578125 -7.4375 C 15.753906 -7.03125 15.941406 -6.613281 16.140625 -6.1875 C 16.347656 -5.769531 16.550781 -5.320312 16.75 -4.84375 C 17.019531 -4.226562 17.253906 -3.648438 17.453125 -3.109375 C 17.648438 -2.578125 17.804688 -2.09375 17.921875 -1.65625 C 18.015625 -1.21875 18.003906 -0.875 17.890625 -0.625 C 17.722656 -0.257812 17.367188 0 16.828125 0.15625 C 16.679688 0.175781 16.515625 0.195312 16.328125 0.21875 C 16.148438 0.238281 15.925781 0.25 15.65625 0.25 C 15.382812 0.257812 15.171875 0.257812 15.015625 0.25 C 14.859375 0.25 14.738281 0.226562 14.65625 0.1875 C 14.53125 0.132812 14.394531 0.03125 14.25 -0.125 C 14.101562 -0.28125 13.957031 -0.503906 13.8125 -0.796875 C 13.613281 -1.210938 13.351562 -1.796875 13.03125 -2.546875 C 12.71875 -3.296875 12.332031 -4.242188 11.875 -5.390625 L 11.765625 -5.578125 L 11.765625 -5.171875 C 11.765625 -5.046875 11.765625 -4.90625 11.765625 -4.75 C 11.765625 -4.59375 11.753906 -4.441406 11.734375 -4.296875 L 11.734375 -3.8125 L 11.546875 -3.625 C 11.203125 -3.3125 10.757812 -3.15625 10.21875 -3.15625 C 10.03125 -3.15625 9.8125 -3.132812 9.5625 -3.09375 C 9.320312 -3.0625 8.976562 -3.046875 8.53125 -3.046875 C 8.019531 -3.046875 7.738281 -3.03125 7.6875 -3 C 7.625 -2.976562 7.566406 -2.945312 7.515625 -2.90625 C 7.460938 -2.875 7.40625 -2.816406 7.34375 -2.734375 C 7.28125 -2.648438 7.207031 -2.535156 7.125 -2.390625 C 7.039062 -2.242188 6.9375 -2.054688 6.8125 -1.828125 C 6.550781 -1.367188 6.335938 -1.007812 6.171875 -0.75 C 6.015625 -0.488281 5.851562 -0.300781 5.6875 -0.1875 C 5.34375 0.101562 4.84375 0.25 4.1875 0.25 C 3.375 0.25 2.601562 0.0664062 1.875 -0.296875 C 1.226562 -0.640625 0.835938 -1.085938 0.703125 -1.640625 C 0.648438 -1.984375 0.6875 -2.410156 0.8125 -2.921875 C 0.90625 -3.242188 1.125 -3.789062 1.46875 -4.5625 C 1.8125 -5.332031 2.300781 -6.34375 2.9375 -7.59375 C 3.15625 -8.050781 3.351562 -8.460938 3.53125 -8.828125 C 3.71875 -9.191406 3.882812 -9.515625 4.03125 -9.796875 C 4.300781 -10.347656 4.535156 -10.816406 4.734375 -11.203125 C 4.929688 -11.597656 5.097656 -11.910156 5.234375 -12.140625 C 5.679688 -12.992188 6.085938 -13.726562 6.453125 -14.34375 C 6.816406 -14.96875 7.125 -15.46875 7.375 -15.84375 C 7.539062 -16.082031 7.703125 -16.269531 7.859375 -16.40625 C 8.023438 -16.539062 8.179688 -16.65625 8.328125 -16.75 C 8.472656 -16.84375 8.613281 -16.894531 8.75 -16.90625 Z M 10.703125 -8.578125 C 10.597656 -8.847656 10.523438 -8.984375 10.484375 -8.984375 C 10.460938 -9.003906 10.398438 -8.957031 10.296875 -8.84375 C 10.203125 -8.738281 10.117188 -8.625 10.046875 -8.5 C 9.953125 -8.351562 9.859375 -8.175781 9.765625 -7.96875 C 9.679688 -7.757812 9.585938 -7.523438 9.484375 -7.265625 C 9.265625 -6.722656 9.15625 -6.390625 9.15625 -6.265625 L 9.125 -6.09375 L 9.234375 -6.078125 C 9.359375 -6.054688 9.601562 -6.054688 9.96875 -6.078125 C 10.1875 -6.078125 10.390625 -6.078125 10.578125 -6.078125 C 10.765625 -6.078125 10.929688 -6.066406 11.078125 -6.046875 C 11.171875 -6.046875 11.253906 -6.039062 11.328125 -6.03125 C 11.398438 -6.019531 11.457031 -6.015625 11.5 -6.015625 C 11.550781 -6.015625 11.59375 -6.015625 11.625 -6.015625 C 11.644531 -6.035156 11.582031 -6.300781 11.4375 -6.8125 C 11.289062 -7.320312 11.046875 -7.910156 10.703125 -8.578125 Z M 10.703125 -8.578125 "/></g></g></g><g fill="#e71f69" fill-opacity="1"><g transform="translate(115.472145, 133.012174)"><g><path d="M 2.71875 -16.71875 C 3.007812 -16.757812 3.320312 -16.773438 3.65625 -16.765625 C 4 -16.753906 4.378906 -16.738281 4.796875 -16.71875 C 5.554688 -16.644531 6.113281 -16.378906 6.46875 -15.921875 C 6.820312 -15.472656 7.085938 -14.90625 7.265625 -14.21875 C 7.304688 -14.03125 7.34375 -13.875 7.375 -13.75 C 7.414062 -13.625 7.453125 -13.507812 7.484375 -13.40625 C 7.523438 -13.3125 7.578125 -13.1875 7.640625 -13.03125 C 7.703125 -12.875 7.75 -12.695312 7.78125 -12.5 C 7.820312 -12.300781 7.847656 -12.171875 7.859375 -12.109375 C 7.867188 -12.046875 7.890625 -11.984375 7.921875 -11.921875 C 7.941406 -11.890625 7.953125 -11.835938 7.953125 -11.765625 C 7.953125 -11.691406 7.988281 -11.582031 8.0625 -11.4375 C 8.09375 -11.3125 8.132812 -11.1875 8.1875 -11.0625 C 8.25 -10.945312 8.296875 -10.816406 8.328125 -10.671875 C 8.328125 -10.660156 8.347656 -10.59375 8.390625 -10.46875 C 8.441406 -10.351562 8.492188 -10.222656 8.546875 -10.078125 C 8.609375 -9.929688 8.664062 -9.773438 8.71875 -9.609375 C 8.769531 -9.453125 8.8125 -9.316406 8.84375 -9.203125 C 8.988281 -8.859375 9.113281 -8.550781 9.21875 -8.28125 C 9.320312 -8.019531 9.425781 -7.789062 9.53125 -7.59375 C 9.625 -7.4375 9.6875 -7.285156 9.71875 -7.140625 C 9.757812 -6.992188 9.796875 -6.863281 9.828125 -6.75 C 9.898438 -6.519531 9.957031 -6.367188 10 -6.296875 C 10.050781 -6.234375 10.125 -6.203125 10.21875 -6.203125 C 10.25 -6.203125 10.3125 -6.285156 10.40625 -6.453125 C 10.5 -6.617188 10.597656 -6.863281 10.703125 -7.1875 C 10.847656 -7.65625 10.992188 -8.113281 11.140625 -8.5625 C 11.285156 -9.007812 11.445312 -9.46875 11.625 -9.9375 C 11.664062 -10.082031 11.71875 -10.210938 11.78125 -10.328125 C 11.84375 -10.453125 11.890625 -10.566406 11.921875 -10.671875 C 12.109375 -11.148438 12.285156 -11.632812 12.453125 -12.125 C 12.628906 -12.613281 12.800781 -13.09375 12.96875 -13.5625 C 13.039062 -13.800781 13.117188 -14.007812 13.203125 -14.1875 C 13.296875 -14.375 13.363281 -14.519531 13.40625 -14.625 C 13.457031 -14.800781 13.503906 -14.976562 13.546875 -15.15625 C 13.585938 -15.332031 13.65625 -15.519531 13.75 -15.71875 C 13.84375 -15.914062 13.914062 -16.070312 13.96875 -16.1875 C 14.019531 -16.3125 14.054688 -16.398438 14.078125 -16.453125 C 14.117188 -16.503906 14.179688 -16.578125 14.265625 -16.671875 L 14.40625 -16.75 L 15.171875 -16.75 L 15.90625 -16.71875 L 16.15625 -16.640625 C 16.570312 -16.472656 16.820312 -16.273438 16.90625 -16.046875 C 16.96875 -15.929688 17 -15.722656 17 -15.421875 C 17 -15.253906 17.003906 -15.109375 17.015625 -14.984375 C 17.035156 -14.867188 17.03125 -14.757812 17 -14.65625 C 16.882812 -14.25 16.769531 -13.882812 16.65625 -13.5625 C 16.539062 -13.25 16.4375 -12.96875 16.34375 -12.71875 C 16.300781 -12.613281 16.238281 -12.476562 16.15625 -12.3125 C 16.082031 -12.144531 16.007812 -11.976562 15.9375 -11.8125 C 15.863281 -11.613281 15.804688 -11.4375 15.765625 -11.28125 C 15.734375 -11.132812 15.6875 -10.992188 15.625 -10.859375 C 15.488281 -10.578125 15.332031 -10.125 15.15625 -9.5 C 14.976562 -8.882812 14.738281 -8.085938 14.4375 -7.109375 C 14.195312 -6.285156 13.9375 -5.492188 13.65625 -4.734375 C 13.375 -3.972656 13.023438 -3.222656 12.609375 -2.484375 C 11.972656 -1.285156 11.535156 -0.582031 11.296875 -0.375 C 11.117188 -0.21875 10.832031 -0.0820312 10.4375 0.03125 C 10.300781 0.0625 10.066406 0.0859375 9.734375 0.109375 C 9.398438 0.140625 9.035156 0.160156 8.640625 0.171875 C 8.253906 0.179688 7.890625 0.179688 7.546875 0.171875 C 7.210938 0.160156 6.984375 0.148438 6.859375 0.140625 C 6.734375 0.117188 6.632812 0.0976562 6.5625 0.078125 C 6.488281 0.0546875 6.425781 0.0234375 6.375 -0.015625 C 6.332031 -0.0546875 6.289062 -0.117188 6.25 -0.203125 C 6.207031 -0.285156 6.140625 -0.398438 6.046875 -0.546875 C 5.242188 -1.765625 4.609375 -3.0625 4.140625 -4.4375 C 4.046875 -4.695312 3.972656 -4.953125 3.921875 -5.203125 C 3.867188 -5.453125 3.785156 -5.710938 3.671875 -5.984375 C 3.421875 -6.515625 3.085938 -7.425781 2.671875 -8.71875 C 2.554688 -9.039062 2.441406 -9.425781 2.328125 -9.875 C 2.210938 -10.320312 2.070312 -10.816406 1.90625 -11.359375 C 1.726562 -12.046875 1.601562 -12.488281 1.53125 -12.6875 C 1.363281 -13.25 1.238281 -13.738281 1.15625 -14.15625 C 1.070312 -14.570312 1.015625 -14.925781 0.984375 -15.21875 C 0.941406 -15.4375 0.941406 -15.617188 0.984375 -15.765625 C 1.035156 -15.910156 1.109375 -16.03125 1.203125 -16.125 C 1.429688 -16.46875 1.9375 -16.664062 2.71875 -16.71875 Z M 2.71875 -16.71875 "/></g></g></g><g fill="#e71f69" fill-opacity="1"><g transform="translate(133.338254, 133.012174)"><g><path d="M 4.625 -17.1875 C 5.25 -17.257812 5.820312 -17.164062 6.34375 -16.90625 C 6.800781 -16.675781 7.066406 -16.332031 7.140625 -15.875 C 7.222656 -15.53125 7.285156 -14.566406 7.328125 -12.984375 C 7.328125 -11.710938 7.335938 -11.050781 7.359375 -11 C 7.429688 -10.800781 7.570312 -10.640625 7.78125 -10.515625 C 8 -10.390625 8.410156 -10.363281 9.015625 -10.4375 C 9.453125 -10.46875 9.832031 -10.492188 10.15625 -10.515625 C 10.625 -10.546875 11 -10.570312 11.28125 -10.59375 C 11.5625 -10.613281 11.75 -10.632812 11.84375 -10.65625 C 11.9375 -10.664062 12.109375 -10.679688 12.359375 -10.703125 C 12.617188 -10.734375 12.957031 -10.78125 13.375 -10.84375 C 14.03125 -10.894531 14.484375 -10.800781 14.734375 -10.5625 C 14.984375 -10.332031 15.128906 -9.9375 15.171875 -9.375 C 15.171875 -9.113281 15.140625 -8.890625 15.078125 -8.703125 C 15.015625 -8.515625 14.925781 -8.347656 14.8125 -8.203125 C 14.707031 -8.085938 14.414062 -7.945312 13.9375 -7.78125 C 12.945312 -7.507812 11.914062 -7.28125 10.84375 -7.09375 C 9.769531 -6.914062 8.71875 -6.765625 7.6875 -6.640625 L 7.46875 -6.625 L 7.46875 -3.84375 L 7.703125 -3.84375 C 8.328125 -3.84375 8.945312 -3.851562 9.5625 -3.875 C 10.175781 -3.90625 10.789062 -3.9375 11.40625 -3.96875 C 11.882812 -4.039062 12.367188 -4.078125 12.859375 -4.078125 C 13.359375 -4.078125 13.847656 -4.113281 14.328125 -4.1875 C 14.453125 -4.207031 14.566406 -4.21875 14.671875 -4.21875 C 14.785156 -4.21875 14.890625 -4.21875 14.984375 -4.21875 C 15.160156 -4.21875 15.3125 -4.191406 15.4375 -4.140625 C 15.96875 -3.867188 16.222656 -3.316406 16.203125 -2.484375 C 16.171875 -2.066406 16.070312 -1.722656 15.90625 -1.453125 C 15.738281 -1.191406 15.523438 -0.976562 15.265625 -0.8125 C 15.015625 -0.65625 14.726562 -0.535156 14.40625 -0.453125 C 14.082031 -0.367188 13.738281 -0.300781 13.375 -0.25 C 12.695312 -0.132812 12.054688 -0.0507812 11.453125 0 C 10.859375 0.0507812 10.289062 0.0976562 9.75 0.140625 C 9.476562 0.148438 9.226562 0.15625 9 0.15625 C 8.769531 0.15625 8.554688 0.164062 8.359375 0.1875 C 6.921875 0.28125 5.585938 0.21875 4.359375 0 C 3.460938 -0.175781 2.820312 -0.382812 2.4375 -0.625 C 2.0625 -0.863281 1.8125 -1.207031 1.6875 -1.65625 C 1.65625 -1.84375 1.628906 -2.117188 1.609375 -2.484375 C 1.585938 -2.859375 1.597656 -3.335938 1.640625 -3.921875 C 1.671875 -4.753906 1.710938 -5.582031 1.765625 -6.40625 C 1.828125 -7.238281 1.890625 -8.070312 1.953125 -8.90625 C 2.015625 -9.363281 2.054688 -9.78125 2.078125 -10.15625 C 2.109375 -10.539062 2.132812 -10.894531 2.15625 -11.21875 C 2.164062 -11.488281 2.1875 -11.796875 2.21875 -12.140625 C 2.25 -12.484375 2.28125 -12.847656 2.3125 -13.234375 C 2.3125 -13.628906 2.328125 -14.03125 2.359375 -14.4375 C 2.398438 -14.851562 2.445312 -15.257812 2.5 -15.65625 C 2.570312 -16.257812 2.835938 -16.660156 3.296875 -16.859375 C 3.492188 -16.960938 3.707031 -17.035156 3.9375 -17.078125 C 4.164062 -17.128906 4.394531 -17.164062 4.625 -17.1875 Z M 10.84375 -16.890625 C 11.039062 -16.898438 11.273438 -16.90625 11.546875 -16.90625 C 11.816406 -16.90625 12.144531 -16.90625 12.53125 -16.90625 C 12.894531 -16.90625 13.207031 -16.90625 13.46875 -16.90625 C 13.726562 -16.90625 13.929688 -16.898438 14.078125 -16.890625 C 14.421875 -16.867188 14.757812 -16.796875 15.09375 -16.671875 C 15.4375 -16.546875 15.648438 -16.289062 15.734375 -15.90625 C 15.847656 -15.507812 15.832031 -15.066406 15.6875 -14.578125 C 15.582031 -14.148438 15.410156 -13.820312 15.171875 -13.59375 C 14.929688 -13.375 14.566406 -13.203125 14.078125 -13.078125 C 13.660156 -12.960938 13.210938 -12.875 12.734375 -12.8125 C 12.265625 -12.75 11.769531 -12.71875 11.25 -12.71875 C 11.03125 -12.71875 10.769531 -12.722656 10.46875 -12.734375 C 10.164062 -12.742188 9.851562 -12.769531 9.53125 -12.8125 C 9.21875 -12.851562 8.925781 -12.921875 8.65625 -13.015625 C 8.382812 -13.109375 8.164062 -13.238281 8 -13.40625 C 7.769531 -13.6875 7.664062 -14.140625 7.6875 -14.765625 C 7.71875 -15.410156 7.78125 -15.804688 7.875 -15.953125 C 8.019531 -16.304688 8.34375 -16.535156 8.84375 -16.640625 C 9.351562 -16.742188 10.019531 -16.828125 10.84375 -16.890625 Z M 10.84375 -16.890625 "/></g></g></g><g fill="#e71f69" fill-opacity="1"><g transform="translate(150.469018, 133.012174)"><g><path d="M 4.390625 -16.71875 C 4.472656 -16.738281 4.546875 -16.75 4.609375 -16.75 C 4.679688 -16.75 4.742188 -16.75 4.796875 -16.75 C 5.460938 -16.769531 6.097656 -16.679688 6.703125 -16.484375 C 7.335938 -16.265625 7.828125 -15.863281 8.171875 -15.28125 C 8.640625 -14.550781 8.9375 -13.992188 9.0625 -13.609375 C 9.0625 -13.597656 9.21875 -13.3125 9.53125 -12.75 C 9.644531 -12.550781 9.734375 -12.363281 9.796875 -12.1875 C 9.867188 -12.007812 9.9375 -11.867188 10 -11.765625 C 10.007812 -11.742188 10.019531 -11.710938 10.03125 -11.671875 C 10.039062 -11.628906 10.09375 -11.550781 10.1875 -11.4375 C 10.207031 -11.382812 10.234375 -11.328125 10.265625 -11.265625 C 10.304688 -11.210938 10.34375 -11.144531 10.375 -11.0625 C 10.414062 -11 10.460938 -10.90625 10.515625 -10.78125 C 10.566406 -10.65625 10.628906 -10.492188 10.703125 -10.296875 C 10.867188 -9.878906 10.96875 -9.660156 11 -9.640625 C 11.039062 -9.492188 11.109375 -9.296875 11.203125 -9.046875 C 11.304688 -8.804688 11.445312 -8.515625 11.625 -8.171875 C 11.644531 -8.128906 11.660156 -8.085938 11.671875 -8.046875 C 11.679688 -8.003906 11.703125 -7.945312 11.734375 -7.875 C 11.828125 -7.6875 11.890625 -7.519531 11.921875 -7.375 C 11.941406 -7.363281 11.957031 -7.347656 11.96875 -7.328125 C 11.976562 -7.304688 12 -7.28125 12.03125 -7.25 C 12.03125 -7.1875 12.054688 -7.097656 12.109375 -6.984375 C 12.171875 -6.867188 12.238281 -6.742188 12.3125 -6.609375 C 12.382812 -6.484375 12.457031 -6.363281 12.53125 -6.25 C 12.601562 -6.144531 12.65625 -6.078125 12.6875 -6.046875 C 12.707031 -6.046875 12.742188 -6.101562 12.796875 -6.21875 C 12.847656 -6.34375 12.882812 -6.554688 12.90625 -6.859375 C 12.925781 -7.003906 12.9375 -7.144531 12.9375 -7.28125 C 12.9375 -7.414062 12.945312 -7.554688 12.96875 -7.703125 C 12.96875 -7.828125 12.96875 -8.019531 12.96875 -8.28125 C 12.96875 -8.550781 12.972656 -8.867188 12.984375 -9.234375 C 12.972656 -9.941406 12.972656 -10.457031 12.984375 -10.78125 C 13.003906 -10.925781 13.007812 -11.195312 13 -11.59375 C 12.988281 -12 12.992188 -12.460938 13.015625 -12.984375 C 12.992188 -14.046875 12.992188 -14.640625 13.015625 -14.765625 C 13.054688 -14.910156 13.09375 -15.0625 13.125 -15.21875 C 13.164062 -15.382812 13.226562 -15.550781 13.3125 -15.71875 C 13.550781 -16.1875 13.988281 -16.503906 14.625 -16.671875 C 14.9375 -16.722656 15.226562 -16.75 15.5 -16.75 C 15.914062 -16.75 16.351562 -16.65625 16.8125 -16.46875 C 17.28125 -16.289062 17.601562 -15.992188 17.78125 -15.578125 C 17.851562 -15.398438 17.910156 -15.125 17.953125 -14.75 C 18.003906 -14.375 18.03125 -13.90625 18.03125 -13.34375 C 18.0625 -12.882812 18.082031 -12.445312 18.09375 -12.03125 C 18.101562 -11.613281 18.109375 -11.28125 18.109375 -11.03125 C 18.085938 -10.34375 18.0625 -9.789062 18.03125 -9.375 C 18.007812 -8.957031 17.988281 -8.675781 17.96875 -8.53125 C 17.957031 -8.46875 17.953125 -8.28125 17.953125 -7.96875 C 17.960938 -7.664062 17.960938 -7.234375 17.953125 -6.671875 C 17.953125 -5.503906 17.941406 -4.894531 17.921875 -4.84375 C 17.921875 -4.695312 17.914062 -4.492188 17.90625 -4.234375 C 17.894531 -3.972656 17.875 -3.625 17.84375 -3.1875 C 17.820312 -2.988281 17.8125 -2.828125 17.8125 -2.703125 C 17.8125 -2.585938 17.8125 -2.519531 17.8125 -2.5 C 17.789062 -2.414062 17.765625 -2.273438 17.734375 -2.078125 C 17.710938 -1.890625 17.675781 -1.660156 17.625 -1.390625 C 17.5625 -1.023438 17.390625 -0.707031 17.109375 -0.4375 C 16.828125 -0.164062 16.523438 0.0234375 16.203125 0.140625 C 16.003906 0.191406 15.757812 0.171875 15.46875 0.078125 C 15.394531 0.0546875 15.328125 0.046875 15.265625 0.046875 C 15.203125 0.046875 15.125 0.0390625 15.03125 0.03125 C 13.707031 -0.164062 12.71875 -0.6875 12.0625 -1.53125 C 11.894531 -1.726562 11.722656 -1.9375 11.546875 -2.15625 C 11.367188 -2.375 11.195312 -2.628906 11.03125 -2.921875 C 10.9375 -3.046875 10.828125 -3.222656 10.703125 -3.453125 C 10.578125 -3.691406 10.414062 -3.992188 10.21875 -4.359375 C 9.90625 -4.878906 9.625 -5.40625 9.375 -5.9375 C 9.132812 -6.46875 8.890625 -7.019531 8.640625 -7.59375 C 8.546875 -7.789062 8.46875 -7.96875 8.40625 -8.125 C 8.351562 -8.28125 8.289062 -8.429688 8.21875 -8.578125 C 8.09375 -8.898438 7.976562 -9.179688 7.875 -9.421875 C 7.78125 -9.660156 7.71875 -9.851562 7.6875 -10 L 7.546875 -10.296875 C 7.546875 -10.273438 7.539062 -10.242188 7.53125 -10.203125 C 7.519531 -10.171875 7.503906 -10.109375 7.484375 -10.015625 C 7.453125 -9.742188 7.421875 -9.484375 7.390625 -9.234375 C 7.367188 -8.992188 7.347656 -8.765625 7.328125 -8.546875 C 7.328125 -7.828125 7.304688 -7.375 7.265625 -7.1875 C 7.265625 -7.15625 7.265625 -7.066406 7.265625 -6.921875 C 7.265625 -6.773438 7.257812 -6.566406 7.25 -6.296875 C 7.25 -5.910156 7.234375 -5.484375 7.203125 -5.015625 C 7.171875 -4.554688 7.128906 -4.09375 7.078125 -3.625 C 7.023438 -3.15625 6.960938 -2.695312 6.890625 -2.25 C 6.816406 -1.800781 6.726562 -1.394531 6.625 -1.03125 C 6.53125 -0.664062 6.445312 -0.425781 6.375 -0.3125 C 6.300781 -0.207031 6.171875 -0.113281 5.984375 -0.03125 C 5.828125 0.0195312 5.65625 0.0625 5.46875 0.09375 C 5.289062 0.132812 5.09375 0.15625 4.875 0.15625 C 4.582031 0.15625 4.257812 0.128906 3.90625 0.078125 C 3.550781 0.0234375 3.210938 -0.0664062 2.890625 -0.203125 C 2.578125 -0.335938 2.304688 -0.519531 2.078125 -0.75 C 1.859375 -0.976562 1.71875 -1.265625 1.65625 -1.609375 C 1.644531 -1.679688 1.640625 -1.875 1.640625 -2.1875 C 1.640625 -2.507812 1.628906 -2.867188 1.609375 -3.265625 C 1.609375 -3.703125 1.597656 -4.054688 1.578125 -4.328125 C 1.554688 -4.597656 1.566406 -4.804688 1.609375 -4.953125 C 1.609375 -5.003906 1.613281 -5.109375 1.625 -5.265625 C 1.644531 -5.421875 1.65625 -5.519531 1.65625 -5.5625 C 1.695312 -5.863281 1.734375 -6.289062 1.765625 -6.84375 C 1.804688 -7.40625 1.84375 -8.09375 1.875 -8.90625 C 1.875 -8.957031 1.882812 -9.085938 1.90625 -9.296875 C 1.9375 -9.503906 1.953125 -9.640625 1.953125 -9.703125 L 1.953125 -10.453125 C 1.992188 -10.585938 2.015625 -10.71875 2.015625 -10.84375 C 2.015625 -10.96875 2.023438 -11.101562 2.046875 -11.25 C 2.046875 -11.445312 2.046875 -11.609375 2.046875 -11.734375 C 2.054688 -11.859375 2.070312 -11.96875 2.09375 -12.0625 C 2.132812 -12.519531 2.160156 -12.914062 2.171875 -13.25 C 2.191406 -13.582031 2.226562 -13.847656 2.28125 -14.046875 C 2.375 -14.429688 2.484375 -14.78125 2.609375 -15.09375 C 2.742188 -15.414062 2.910156 -15.6875 3.109375 -15.90625 C 3.253906 -16.101562 3.429688 -16.265625 3.640625 -16.390625 C 3.859375 -16.515625 4.109375 -16.625 4.390625 -16.71875 Z M 4.390625 -16.71875 "/></g></g></g></svg>